<svg xmlns="http://www.w3.org/2000/svg" xmlns:xlink="http://www.w3.org/1999/xlink" width="700" height="500" stroke="gray" stroke-width="1" class="plt-container"><style type="text/css">.plt-container{font-family:Lucida Grande,sans-serif;user-select:none;-webkit-user-select:none;-moz-user-select:none;-ms-user-select:none}text{text-rendering:optimizeLegibility}#p7kWjjJ .legend-item,#p7kWjjJ .legend-title{fill:#474747;font-family:Lucida Grande,sans-serif;font-weight:400;font-style:normal}#p7kWjjJ .legend-title{font-size:15px}#p7kWjjJ .legend-item{font-size:13px}#p7kWjjJ .axis-text-x,#p7kWjjJ .axis-text-y{fill:#474747;font-family:Lucida Grande,sans-serif;font-weight:400;font-style:normal}#p7kWjjJ .axis-title-x{font-size:15px}#p7kWjjJ .axis-title-x,#p7kWjjJ .axis-title-y{fill:#474747;font-family:Lucida Grande,sans-serif;font-weight:400;font-style:normal}#p7kWjjJ .axis-text-x{font-size:13px}#p7kWjjJ .axis-title-y{font-size:15px}#p7kWjjJ .axis-text-y{font-size:13px}</style><g id="p7kWjjJ"><path fill="#FFF" fill-opacity="1" fill-rule="evenodd" d="M0.0 0.0 L0.0 500.0 L700.0 500.0 L700.0 0.0 Z"/><g><g transform="translate(23.0 10.0 ) translate(21.961210910936405 0.0 )"><line x1="106.999" x2="106.999" y1="444" y2="0" fill="none" stroke="#E9E9E9" stroke-opacity="1" stroke-width="1"/><line x1="271.612" x2="271.612" y1="444" y2="0" fill="none" stroke="#E9E9E9" stroke-opacity="1" stroke-width="1"/><line x1="436.226" x2="436.226" y1="444" y2="0" fill="none" stroke="#E9E9E9" stroke-opacity="1" stroke-width="1"/></g><g transform="translate(23.0 10.0 ) translate(21.961210910936405 0.0 )"><line x1="0" x2="543.224" y1="418.149" y2="418.149" fill="none" stroke="#E9E9E9" stroke-opacity="1" stroke-width="1"/><line x1="0" x2="543.224" y1="361.459" y2="361.459" fill="none" stroke="#E9E9E9" stroke-opacity="1" stroke-width="1"/><line x1="0" x2="543.224" y1="304.768" y2="304.768" fill="none" stroke="#E9E9E9" stroke-opacity="1" stroke-width="1"/><line x1="0" x2="543.224" y1="248.078" y2="248.078" fill="none" stroke="#E9E9E9" stroke-opacity="1" stroke-width="1"/><line x1="0" x2="543.224" y1="191.387" y2="191.387" fill="none" stroke="#E9E9E9" stroke-opacity="1" stroke-width="1"/><line x1="0" x2="543.224" y1="134.697" y2="134.697" fill="none" stroke="#E9E9E9" stroke-opacity="1" stroke-width="1"/><line x1="0" x2="543.224" y1="78.006" y2="78.006" fill="none" stroke="#E9E9E9" stroke-opacity="1" stroke-width="1"/><line x1="0" x2="543.224" y1="21.316" y2="21.316" fill="none" stroke="#E9E9E9" stroke-opacity="1" stroke-width="1"/></g><g clip-bounds-jfx="[rect (0.0, 0.0), (543.2244069316057, 444.0)]" clip-path="url(#cHEHJ15)" transform="translate(23.0 10.0 ) translate(21.961210910936405 0.0 )"><defs><clipPath id="cHEHJ15"><rect width="543.224" height="444" x="0" y="0"/></clipPath></defs><rect width="148.152" height="149.096" x="32.923" y="236.74" fill="#FFFF80" fill-opacity="1" stroke="#474747" stroke-opacity="1" stroke-width="1.65"/><rect width="148.152" height="133.79" x="197.536" y="183.45" fill="#FFD2FF" fill-opacity="1" stroke="#474747" stroke-opacity="1" stroke-width="1.65"/><rect width="148.152" height="34.581" x="362.15" y="55.897" fill="#D2FFD2" fill-opacity="1" stroke="#474747" stroke-opacity="1" stroke-width="1.65"/><line x1="32.923" x2="181.075" y1="312.138" y2="312.138" fill="none" stroke="#474747" stroke-opacity="1" stroke-width="3.3"/><line x1="197.536" x2="345.688" y1="257.715" y2="257.715" fill="none" stroke="#474747" stroke-opacity="1" stroke-width="3.3"/><line x1="362.15" x2="510.302" y1="75.172" y2="75.172" fill="none" stroke="#474747" stroke-opacity="1" stroke-width="3.3"/><line x1="106.999" x2="106.999" y1="385.836" y2="423.818" fill="none" stroke="#474747" stroke-opacity="1" stroke-width="1.65"/><line x1="69.961" x2="144.037" y1="423.818" y2="423.818" fill="none" stroke="#474747" stroke-opacity="1" stroke-width="1.65"/><line x1="106.999" x2="106.999" y1="236.74" y2="200.458" fill="none" stroke="#474747" stroke-opacity="1" stroke-width="1.65"/><line x1="69.961" x2="144.037" y1="200.458" y2="200.458" fill="none" stroke="#474747" stroke-opacity="1" stroke-width="1.65"/><line x1="271.612" x2="271.612" y1="317.24" y2="346.719" fill="none" stroke="#474747" stroke-opacity="1" stroke-width="1.65"/><line x1="234.574" x2="308.65" y1="346.719" y2="346.719" fill="none" stroke="#474747" stroke-opacity="1" stroke-width="1.65"/><line x1="271.612" x2="271.612" y1="183.45" y2="138.098" fill="none" stroke="#474747" stroke-opacity="1" stroke-width="1.65"/><line x1="234.574" x2="308.65" y1="138.098" y2="138.098" fill="none" stroke="#474747" stroke-opacity="1" stroke-width="1.65"/><line x1="436.226" x2="436.226" y1="90.478" y2="106.351" fill="none" stroke="#474747" stroke-opacity="1" stroke-width="1.65"/><line x1="399.188" x2="473.264" y1="106.351" y2="106.351" fill="none" stroke="#474747" stroke-opacity="1" stroke-width="1.65"/><line x1="436.226" x2="436.226" y1="55.897" y2="20.182" fill="none" stroke="#474747" stroke-opacity="1" stroke-width="1.65"/><line x1="399.188" x2="473.264" y1="20.182" y2="20.182" fill="none" stroke="#474747" stroke-opacity="1" stroke-width="1.65"/></g><g clip-bounds-jfx="[rect (0.0, 0.0), (543.2244069316057, 444.0)]" clip-path="url(#cWBte8b)" transform="translate(23.0 10.0 ) translate(21.961210910936405 0.0 )"><defs><clipPath id="cWBte8b"><rect width="543.224" height="444" x="0" y="0"/></clipPath></defs></g><g transform="translate(23.0 10.0 ) translate(21.961210910936405 444.0 )"><g transform="translate(106.99874681986172 0.0 )"><line x2="0" y2="4" stroke="#474747" stroke-opacity="1" stroke-width="1"/><g><text class="axis-text-x" dy=".7em" text-anchor="middle" transform="translate(0.0 7.0 )"><tspan>Berlin</tspan></text></g></g><g transform="translate(271.61220346580285 0.0 )"><line x2="0" y2="4" stroke="#474747" stroke-opacity="1" stroke-width="1"/><g><text class="axis-text-x" dy=".7em" text-anchor="middle" transform="translate(0.0 7.0 )"><tspan>Madrid</tspan></text></g></g><g transform="translate(436.22566011174393 0.0 )"><line x2="0" y2="4" stroke="#474747" stroke-opacity="1" stroke-width="1"/><g><text class="axis-text-x" dy=".7em" text-anchor="middle" transform="translate(0.0 7.0 )"><tspan>Caracas</tspan></text></g></g><line x1="0" x2="543.224" y1="0" y2="0" stroke="#474747" stroke-opacity="1" stroke-width="1"/></g><g><g><g><text class="axis-text-y" dy=".35em" text-anchor="end" transform="translate(23.0 10.0 ) translate(21.961210910936405 0.0 ) translate(0.0 418.1491317671093 ) translate(-3.0 0.0 )"><tspan>0</tspan></text></g></g><g><g><text class="axis-text-y" dy=".35em" text-anchor="end" transform="translate(23.0 10.0 ) translate(21.961210910936405 0.0 ) translate(0.0 361.458631256384 ) translate(-3.0 0.0 )"><tspan>5</tspan></text></g></g><g><g><text class="axis-text-y" dy=".35em" text-anchor="end" transform="translate(23.0 10.0 ) translate(21.961210910936405 0.0 ) translate(0.0 304.7681307456588 ) translate(-3.0 0.0 )"><tspan>10</tspan></text></g></g><g><g><text class="axis-text-y" dy=".35em" text-anchor="end" transform="translate(23.0 10.0 ) translate(21.961210910936405 0.0 ) translate(0.0 248.0776302349336 ) translate(-3.0 0.0 )"><tspan>15</tspan></text></g></g><g><g><text class="axis-text-y" dy=".35em" text-anchor="end" transform="translate(23.0 10.0 ) translate(21.961210910936405 0.0 ) translate(0.0 191.38712972420836 ) translate(-3.0 0.0 )"><tspan>20</tspan></text></g></g><g><g><text class="axis-text-y" dy=".35em" text-anchor="end" transform="translate(23.0 10.0 ) translate(21.961210910936405 0.0 ) translate(0.0 134.69662921348316 ) translate(-3.0 0.0 )"><tspan>25</tspan></text></g></g><g><g><text class="axis-text-y" dy=".35em" text-anchor="end" transform="translate(23.0 10.0 ) translate(21.961210910936405 0.0 ) translate(0.0 78.0061287027579 ) translate(-3.0 0.0 )"><tspan>30</tspan></text></g></g><g><g><text class="axis-text-y" dy=".35em" text-anchor="end" transform="translate(23.0 10.0 ) translate(21.961210910936405 0.0 ) translate(0.0 21.315628192032705 ) translate(-3.0 0.0 )"><tspan>35</tspan></text></g></g></g></g><g><text y="0" class="axis-title-y" text-anchor="middle" transform="translate(14.5 232.0 ) rotate(-90.0 )"><tspan>Temperature</tspan></text></g><g><text y="0" class="axis-title-x" text-anchor="middle" transform="translate(316.57341437673927 491.5 )"><tspan>City</tspan></text></g><g transform="translate(598.1856178425421 176.25 )"><rect width="91.814" height="101.5" x="5" y="5" fill="#FFF" fill-opacity="1" stroke="#474747" stroke-opacity="1" stroke-width="0"/><g><g><text y="0" class="legend-title" transform="translate(10.0 10.0 ) translate(0.0 10.5 )"><tspan>City</tspan></text></g><g><g><g transform="translate(10.0 10.0 ) translate(0.0 22.5 )"><rect width="23" height="23" x="0" y="0" fill="#FFF" fill-opacity="1" stroke-width="0"/><g><g transform="translate(1.0 1.0 )"><rect width="15.48" height="11.61" x="2.76" y="4.695" fill="#FFFF80" fill-opacity="1" stroke="#474747" stroke-opacity="1" stroke-width="1.65"/><line x1="2.76" x2="18.24" y1="10.5" y2="10.5" fill="#FFFF80" fill-opacity="1" stroke="#474747" stroke-opacity="1" stroke-width="1.65"/><line x1="10.5" x2="10.5" y1="16.305" y2="20.175" fill="#FFFF80" fill-opacity="1" stroke="#474747" stroke-opacity="1" stroke-width="1.65"/><line x1="10.5" x2="10.5" y1=".825" y2="4.695" fill="#FFFF80" fill-opacity="1" stroke="#474747" stroke-opacity="1" stroke-width="1.65"/></g></g><rect width="23" height="23" x="0" y="0" fill-opacity="0" stroke="#FFF" stroke-opacity="1" stroke-width="1"/></g><g><text y="0" class="legend-item" transform="translate(10.0 10.0 ) translate(0.0 22.5 ) translate(26.9903027277341 16.05 )"><tspan>Berlin</tspan></text></g></g><g><g transform="translate(10.0 10.0 ) translate(0.0 22.5 ) translate(0.0 23.0 )"><rect width="23" height="23" x="0" y="0" fill="#FFF" fill-opacity="1" stroke-width="0"/><g><g transform="translate(1.0 1.0 )"><rect width="15.48" height="11.61" x="2.76" y="4.695" fill="#FFD2FF" fill-opacity="1" stroke="#474747" stroke-opacity="1" stroke-width="1.65"/><line x1="2.76" x2="18.24" y1="10.5" y2="10.5" fill="#FFD2FF" fill-opacity="1" stroke="#474747" stroke-opacity="1" stroke-width="1.65"/><line x1="10.5" x2="10.5" y1="16.305" y2="20.175" fill="#FFD2FF" fill-opacity="1" stroke="#474747" stroke-opacity="1" stroke-width="1.65"/><line x1="10.5" x2="10.5" y1=".825" y2="4.695" fill="#FFD2FF" fill-opacity="1" stroke="#474747" stroke-opacity="1" stroke-width="1.65"/></g></g><rect width="23" height="23" x="0" y="0" fill-opacity="0" stroke="#FFF" stroke-opacity="1" stroke-width="1"/></g><g><text y="0" class="legend-item" transform="translate(10.0 10.0 ) translate(0.0 22.5 ) translate(0.0 23.0 ) translate(26.9903027277341 16.05 )"><tspan>Madrid</tspan></text></g></g><g><g transform="translate(10.0 10.0 ) translate(0.0 22.5 ) translate(0.0 46.0 )"><rect width="23" height="23" x="0" y="0" fill="#FFF" fill-opacity="1" stroke-width="0"/><g><g transform="translate(1.0 1.0 )"><rect width="15.48" height="11.61" x="2.76" y="4.695" fill="#D2FFD2" fill-opacity="1" stroke="#474747" stroke-opacity="1" stroke-width="1.65"/><line x1="2.76" x2="18.24" y1="10.5" y2="10.5" fill="#D2FFD2" fill-opacity="1" stroke="#474747" stroke-opacity="1" stroke-width="1.65"/><line x1="10.5" x2="10.5" y1="16.305" y2="20.175" fill="#D2FFD2" fill-opacity="1" stroke="#474747" stroke-opacity="1" stroke-width="1.65"/><line x1="10.5" x2="10.5" y1=".825" y2="4.695" fill="#D2FFD2" fill-opacity="1" stroke="#474747" stroke-opacity="1" stroke-width="1.65"/></g></g><rect width="23" height="23" x="0" y="0" fill-opacity="0" stroke="#FFF" stroke-opacity="1" stroke-width="1"/></g><g><text y="0" class="legend-item" transform="translate(10.0 10.0 ) translate(0.0 22.5 ) translate(0.0 46.0 ) translate(26.9903027277341 16.05 )"><tspan>Caracas</tspan></text></g></g></g></g></g><path fill="#000" fill-opacity="0" stroke="#474747" stroke-opacity="1" stroke-width="0" d="M0.0 0.0 L0.0 500.0 L700.0 500.0 L700.0 0.0 Z"/></g></svg>