<svg xmlns="http://www.w3.org/2000/svg" xmlns:xlink="http://www.w3.org/1999/xlink" width="600" height="500" stroke="gray" stroke-width="1" class="plt-container"><style type="text/css">.plt-container{font-family:Lucida Grande,sans-serif;user-select:none;-webkit-user-select:none;-moz-user-select:none;-ms-user-select:none}text{text-rendering:optimizeLegibility}#py4u9Tj .legend-item,#py4u9Tj .legend-title{fill:#474747;font-family:Lucida Grande,sans-serif;font-weight:400;font-style:normal}#py4u9Tj .legend-title{font-size:15px}#py4u9Tj .legend-item{font-size:13px}#py4u9Tj .axis-text-x,#py4u9Tj .axis-text-y{fill:#474747;font-family:Lucida Grande,sans-serif;font-weight:400;font-style:normal}#py4u9Tj .axis-title-x{font-size:15px}#py4u9Tj .axis-title-x,#py4u9Tj .axis-title-y{fill:#474747;font-family:Lucida Grande,sans-serif;font-weight:400;font-style:normal}#py4u9Tj .axis-text-x{font-size:13px}#py4u9Tj .axis-title-y{font-size:15px}#py4u9Tj .axis-text-y{font-size:13px}</style><g id="py4u9Tj"><path fill="#FFF" fill-opacity="1" fill-rule="evenodd" d="M0.0 0.0 L0.0 500.0 L600.0 500.0 L600.0 0.0 Z"/><g><g transform="translate(23.0 10.0 ) translate(21.961210910936405 0.0 )"><line x1="7.776" x2="7.776" y1="385.737" y2="0" fill="none" stroke="#E9E9E9" stroke-opacity="1" stroke-width="1"/><line x1="46.655" x2="46.655" y1="385.737" y2="0" fill="none" stroke="#E9E9E9" stroke-opacity="1" stroke-width="1"/><line x1="85.535" x2="85.535" y1="385.737" y2="0" fill="none" stroke="#E9E9E9" stroke-opacity="1" stroke-width="1"/><line x1="124.414" x2="124.414" y1="385.737" y2="0" fill="none" stroke="#E9E9E9" stroke-opacity="1" stroke-width="1"/><line x1="163.293" x2="163.293" y1="385.737" y2="0" fill="none" stroke="#E9E9E9" stroke-opacity="1" stroke-width="1"/><line x1="202.173" x2="202.173" y1="385.737" y2="0" fill="none" stroke="#E9E9E9" stroke-opacity="1" stroke-width="1"/><line x1="241.052" x2="241.052" y1="385.737" y2="0" fill="none" stroke="#E9E9E9" stroke-opacity="1" stroke-width="1"/><line x1="279.931" x2="279.931" y1="385.737" y2="0" fill="none" stroke="#E9E9E9" stroke-opacity="1" stroke-width="1"/><line x1="318.811" x2="318.811" y1="385.737" y2="0" fill="none" stroke="#E9E9E9" stroke-opacity="1" stroke-width="1"/><line x1="357.69" x2="357.69" y1="385.737" y2="0" fill="none" stroke="#E9E9E9" stroke-opacity="1" stroke-width="1"/><line x1="396.569" x2="396.569" y1="385.737" y2="0" fill="none" stroke="#E9E9E9" stroke-opacity="1" stroke-width="1"/><line x1="435.449" x2="435.449" y1="385.737" y2="0" fill="none" stroke="#E9E9E9" stroke-opacity="1" stroke-width="1"/></g><g transform="translate(23.0 10.0 ) translate(21.961210910936405 0.0 )"><line x1="0" x2="443.224" y1="363.278" y2="363.278" fill="none" stroke="#E9E9E9" stroke-opacity="1" stroke-width="1"/><line x1="0" x2="443.224" y1="314.027" y2="314.027" fill="none" stroke="#E9E9E9" stroke-opacity="1" stroke-width="1"/><line x1="0" x2="443.224" y1="264.776" y2="264.776" fill="none" stroke="#E9E9E9" stroke-opacity="1" stroke-width="1"/><line x1="0" x2="443.224" y1="215.524" y2="215.524" fill="none" stroke="#E9E9E9" stroke-opacity="1" stroke-width="1"/><line x1="0" x2="443.224" y1="166.273" y2="166.273" fill="none" stroke="#E9E9E9" stroke-opacity="1" stroke-width="1"/><line x1="0" x2="443.224" y1="117.021" y2="117.021" fill="none" stroke="#E9E9E9" stroke-opacity="1" stroke-width="1"/><line x1="0" x2="443.224" y1="67.77" y2="67.77" fill="none" stroke="#E9E9E9" stroke-opacity="1" stroke-width="1"/><line x1="0" x2="443.224" y1="18.519" y2="18.519" fill="none" stroke="#E9E9E9" stroke-opacity="1" stroke-width="1"/></g><g clip-bounds-jfx="[rect (0.0, 0.0), (443.2244069316057, 385.73695078369224)]" clip-path="url(#cULOltV)" transform="translate(23.0 10.0 ) translate(21.961210910936405 0.0 )"><defs><clipPath id="cULOltV"><rect width="443.224" height="385.737" x="0" y="0"/></clipPath></defs><g><g><rect width="6.6" height="6.6" x="4.476" y="364.903" fill="#e41a1c" stroke="#e41a1c" stroke-opacity="0" stroke-width="0"/><rect width="6.6" height="6.6" x="43.355" y="359.978" fill="#e41a1c" stroke="#e41a1c" stroke-opacity="0" stroke-width="0"/><rect width="6.6" height="6.6" x="82.235" y="312.697" fill="#e41a1c" stroke="#e41a1c" stroke-opacity="0" stroke-width="0"/><rect width="6.6" height="6.6" x="121.114" y="271.326" fill="#e41a1c" stroke="#e41a1c" stroke-opacity="0" stroke-width="0"/><rect width="6.6" height="6.6" x="159.993" y="219.119" fill="#e41a1c" stroke="#e41a1c" stroke-opacity="0" stroke-width="0"/><rect width="6.6" height="6.6" x="198.873" y="187.598" fill="#e41a1c" stroke="#e41a1c" stroke-opacity="0" stroke-width="0"/><rect width="6.6" height="6.6" x="237.752" y="170.853" fill="#e41a1c" stroke="#e41a1c" stroke-opacity="0" stroke-width="0"/><rect width="6.6" height="6.6" x="276.631" y="173.808" fill="#e41a1c" stroke="#e41a1c" stroke-opacity="0" stroke-width="0"/><rect width="6.6" height="6.6" x="315.511" y="217.149" fill="#e41a1c" stroke="#e41a1c" stroke-opacity="0" stroke-width="0"/><rect width="6.6" height="6.6" x="354.39" y="264.431" fill="#e41a1c" stroke="#e41a1c" stroke-opacity="0" stroke-width="0"/><rect width="6.6" height="6.6" x="393.269" y="313.682" fill="#e41a1c" stroke="#e41a1c" stroke-opacity="0" stroke-width="0"/><rect width="6.6" height="6.6" x="432.149" y="350.128" fill="#e41a1c" stroke="#e41a1c" stroke-opacity="0" stroke-width="0"/><rect width="6.6" height="6.6" x="4.476" y="297.922" fill="#377eb8" stroke="#377eb8" stroke-opacity="0" stroke-width="0"/><rect width="6.6" height="6.6" x="43.355" y="282.161" fill="#377eb8" stroke="#377eb8" stroke-opacity="0" stroke-width="0"/><rect width="6.6" height="6.6" x="82.235" y="249.655" fill="#377eb8" stroke="#377eb8" stroke-opacity="0" stroke-width="0"/><rect width="6.6" height="6.6" x="121.114" y="232.91" fill="#377eb8" stroke="#377eb8" stroke-opacity="0" stroke-width="0"/><rect width="6.6" height="6.6" x="159.993" y="195.479" fill="#377eb8" stroke="#377eb8" stroke-opacity="0" stroke-width="0"/><rect width="6.6" height="6.6" x="198.873" y="152.137" fill="#377eb8" stroke="#377eb8" stroke-opacity="0" stroke-width="0"/><rect width="6.6" height="6.6" x="237.752" y="116.676" fill="#377eb8" stroke="#377eb8" stroke-opacity="0" stroke-width="0"/><rect width="6.6" height="6.6" x="276.631" y="121.602" fill="#377eb8" stroke="#377eb8" stroke-opacity="0" stroke-width="0"/><rect width="6.6" height="6.6" x="315.511" y="160.018" fill="#377eb8" stroke="#377eb8" stroke-opacity="0" stroke-width="0"/><rect width="6.6" height="6.6" x="354.39" y="208.284" fill="#377eb8" stroke="#377eb8" stroke-opacity="0" stroke-width="0"/><rect width="6.6" height="6.6" x="393.269" y="262.461" fill="#377eb8" stroke="#377eb8" stroke-opacity="0" stroke-width="0"/><rect width="6.6" height="6.6" x="432.149" y="294.966" fill="#377eb8" stroke="#377eb8" stroke-opacity="0" stroke-width="0"/><rect width="6.6" height="6.6" x="4.476" y="89.096" fill="#4daf4a" stroke="#4daf4a" stroke-opacity="0" stroke-width="0"/><rect width="6.6" height="6.6" x="43.355" y="75.305" fill="#4daf4a" stroke="#4daf4a" stroke-opacity="0" stroke-width="0"/><rect width="6.6" height="6.6" x="82.235" y="68.41" fill="#4daf4a" stroke="#4daf4a" stroke-opacity="0" stroke-width="0"/><rect width="6.6" height="6.6" x="121.114" y="55.605" fill="#4daf4a" stroke="#4daf4a" stroke-opacity="0" stroke-width="0"/><rect width="6.6" height="6.6" x="159.993" y="47.724" fill="#4daf4a" stroke="#4daf4a" stroke-opacity="0" stroke-width="0"/><rect width="6.6" height="6.6" x="198.873" y="14.233" fill="#4daf4a" stroke="#4daf4a" stroke-opacity="0" stroke-width="0"/><rect width="6.6" height="6.6" x="237.752" y="27.039" fill="#4daf4a" stroke="#4daf4a" stroke-opacity="0" stroke-width="0"/><rect width="6.6" height="6.6" x="276.631" y="42.799" fill="#4daf4a" stroke="#4daf4a" stroke-opacity="0" stroke-width="0"/><rect width="6.6" height="6.6" x="315.511" y="51.665" fill="#4daf4a" stroke="#4daf4a" stroke-opacity="0" stroke-width="0"/><rect width="6.6" height="6.6" x="354.39" y="70.38" fill="#4daf4a" stroke="#4daf4a" stroke-opacity="0" stroke-width="0"/><rect width="6.6" height="6.6" x="393.269" y="75.305" fill="#4daf4a" stroke="#4daf4a" stroke-opacity="0" stroke-width="0"/><rect width="6.6" height="6.6" x="432.149" y="88.111" fill="#4daf4a" stroke="#4daf4a" stroke-opacity="0" stroke-width="0"/></g></g></g><g transform="translate(23.0 10.0 ) translate(21.961210910936405 385.73695078369224 )"><g transform="translate(7.7758667882737855 0.0 )"><line x2="0" y2="4" stroke="#474747" stroke-opacity="1" stroke-width="1"/><g><text class="axis-text-x" dy=".35em" transform="translate(0.0 7.0 ) rotate(90.0 )"><tspan>January</tspan></text></g></g><g transform="translate(46.655200729642715 0.0 )"><line x2="0" y2="4" stroke="#474747" stroke-opacity="1" stroke-width="1"/><g><text class="axis-text-x" dy=".35em" transform="translate(0.0 7.0 ) rotate(90.0 )"><tspan>February</tspan></text></g></g><g transform="translate(85.53453467101164 0.0 )"><line x2="0" y2="4" stroke="#474747" stroke-opacity="1" stroke-width="1"/><g><text class="axis-text-x" dy=".35em" transform="translate(0.0 7.0 ) rotate(90.0 )"><tspan>March</tspan></text></g></g><g transform="translate(124.41386861238057 0.0 )"><line x2="0" y2="4" stroke="#474747" stroke-opacity="1" stroke-width="1"/><g><text class="axis-text-x" dy=".35em" transform="translate(0.0 7.0 ) rotate(90.0 )"><tspan>April</tspan></text></g></g><g transform="translate(163.2932025537495 0.0 )"><line x2="0" y2="4" stroke="#474747" stroke-opacity="1" stroke-width="1"/><g><text class="axis-text-x" dy=".35em" transform="translate(0.0 7.0 ) rotate(90.0 )"><tspan>May</tspan></text></g></g><g transform="translate(202.17253649511844 0.0 )"><line x2="0" y2="4" stroke="#474747" stroke-opacity="1" stroke-width="1"/><g><text class="axis-text-x" dy=".35em" transform="translate(0.0 7.0 ) rotate(90.0 )"><tspan>June</tspan></text></g></g><g transform="translate(241.05187043648735 0.0 )"><line x2="0" y2="4" stroke="#474747" stroke-opacity="1" stroke-width="1"/><g><text class="axis-text-x" dy=".35em" transform="translate(0.0 7.0 ) rotate(90.0 )"><tspan>July</tspan></text></g></g><g transform="translate(279.93120437785626 0.0 )"><line x2="0" y2="4" stroke="#474747" stroke-opacity="1" stroke-width="1"/><g><text class="axis-text-x" dy=".35em" transform="translate(0.0 7.0 ) rotate(90.0 )"><tspan>August</tspan></text></g></g><g transform="translate(318.8105383192252 0.0 )"><line x2="0" y2="4" stroke="#474747" stroke-opacity="1" stroke-width="1"/><g><text class="axis-text-x" dy=".35em" transform="translate(0.0 7.0 ) rotate(90.0 )"><tspan>September</tspan></text></g></g><g transform="translate(357.68987226059414 0.0 )"><line x2="0" y2="4" stroke="#474747" stroke-opacity="1" stroke-width="1"/><g><text class="axis-text-x" dy=".35em" transform="translate(0.0 7.0 ) rotate(90.0 )"><tspan>October</tspan></text></g></g><g transform="translate(396.5692062019631 0.0 )"><line x2="0" y2="4" stroke="#474747" stroke-opacity="1" stroke-width="1"/><g><text class="axis-text-x" dy=".35em" transform="translate(0.0 7.0 ) rotate(90.0 )"><tspan>November</tspan></text></g></g><g transform="translate(435.44854014333197 0.0 )"><line x2="0" y2="4" stroke="#474747" stroke-opacity="1" stroke-width="1"/><g><text class="axis-text-x" dy=".35em" transform="translate(0.0 7.0 ) rotate(90.0 )"><tspan>December</tspan></text></g></g><line x1="0" x2="443.224" y1="0" y2="0" stroke="#474747" stroke-opacity="1" stroke-width="1"/></g><g><g><g><text class="axis-text-y" dy=".35em" text-anchor="end" transform="translate(23.0 10.0 ) translate(21.961210910936405 0.0 ) translate(0.0 363.27831319975917 ) translate(-3.0 0.0 )"><tspan>0</tspan></text></g></g><g><g><text class="axis-text-y" dy=".35em" text-anchor="end" transform="translate(23.0 10.0 ) translate(21.961210910936405 0.0 ) translate(0.0 314.0269149893797 ) translate(-3.0 0.0 )"><tspan>5</tspan></text></g></g><g><g><text class="axis-text-y" dy=".35em" text-anchor="end" transform="translate(23.0 10.0 ) translate(21.961210910936405 0.0 ) translate(0.0 264.7755167790002 ) translate(-3.0 0.0 )"><tspan>10</tspan></text></g></g><g><g><text class="axis-text-y" dy=".35em" text-anchor="end" transform="translate(23.0 10.0 ) translate(21.961210910936405 0.0 ) translate(0.0 215.52411856862068 ) translate(-3.0 0.0 )"><tspan>15</tspan></text></g></g><g><g><text class="axis-text-y" dy=".35em" text-anchor="end" transform="translate(23.0 10.0 ) translate(21.961210910936405 0.0 ) translate(0.0 166.2727203582412 ) translate(-3.0 0.0 )"><tspan>20</tspan></text></g></g><g><g><text class="axis-text-y" dy=".35em" text-anchor="end" transform="translate(23.0 10.0 ) translate(21.961210910936405 0.0 ) translate(0.0 117.0213221478617 ) translate(-3.0 0.0 )"><tspan>25</tspan></text></g></g><g><g><text class="axis-text-y" dy=".35em" text-anchor="end" transform="translate(23.0 10.0 ) translate(21.961210910936405 0.0 ) translate(0.0 67.76992393748219 ) translate(-3.0 0.0 )"><tspan>30</tspan></text></g></g><g><g><text class="axis-text-y" dy=".35em" text-anchor="end" transform="translate(23.0 10.0 ) translate(21.961210910936405 0.0 ) translate(0.0 18.518525727102713 ) translate(-3.0 0.0 )"><tspan>35</tspan></text></g></g></g></g><g><text y="0" class="axis-title-y" text-anchor="middle" transform="translate(14.5 202.86847539184612 ) rotate(-90.0 )"><tspan>Temperature</tspan></text></g><g><text y="0" class="axis-title-x" text-anchor="middle" transform="translate(266.57341437673927 491.5 )"><tspan>Month</tspan></text></g><g transform="translate(498.1856178425421 147.11847539184612 )"><rect width="91.814" height="101.5" x="5" y="5" fill="#FFF" fill-opacity="1" stroke="#474747" stroke-opacity="1" stroke-width="0"/><g><g><text y="0" class="legend-title" transform="translate(10.0 10.0 ) translate(0.0 10.5 )"><tspan>City</tspan></text></g><g><g><g transform="translate(10.0 10.0 ) translate(0.0 22.5 )"><rect width="23" height="23" x="0" y="0" fill="#FFF" fill-opacity="1" stroke-width="0"/><g><g><g transform="translate(1.0 1.0 )"><rect width="11" height="11" x="5" y="5" fill="#e41a1c" stroke="#e41a1c" stroke-opacity="0" stroke-width="0"/></g></g></g><rect width="23" height="23" x="0" y="0" fill-opacity="0" stroke="#FFF" stroke-opacity="1" stroke-width="1"/></g><g><text y="0" class="legend-item" transform="translate(10.0 10.0 ) translate(0.0 22.5 ) translate(26.9903027277341 16.05 )"><tspan>Berlin</tspan></text></g></g><g><g transform="translate(10.0 10.0 ) translate(0.0 22.5 ) translate(0.0 23.0 )"><rect width="23" height="23" x="0" y="0" fill="#FFF" fill-opacity="1" stroke-width="0"/><g><g><g transform="translate(1.0 1.0 )"><rect width="11" height="11" x="5" y="5" fill="#377eb8" stroke="#377eb8" stroke-opacity="0" stroke-width="0"/></g></g></g><rect width="23" height="23" x="0" y="0" fill-opacity="0" stroke="#FFF" stroke-opacity="1" stroke-width="1"/></g><g><text y="0" class="legend-item" transform="translate(10.0 10.0 ) translate(0.0 22.5 ) translate(0.0 23.0 ) translate(26.9903027277341 16.05 )"><tspan>Madrid</tspan></text></g></g><g><g transform="translate(10.0 10.0 ) translate(0.0 22.5 ) translate(0.0 46.0 )"><rect width="23" height="23" x="0" y="0" fill="#FFF" fill-opacity="1" stroke-width="0"/><g><g><g transform="translate(1.0 1.0 )"><rect width="11" height="11" x="5" y="5" fill="#4daf4a" stroke="#4daf4a" stroke-opacity="0" stroke-width="0"/></g></g></g><rect width="23" height="23" x="0" y="0" fill-opacity="0" stroke="#FFF" stroke-opacity="1" stroke-width="1"/></g><g><text y="0" class="legend-item" transform="translate(10.0 10.0 ) translate(0.0 22.5 ) translate(0.0 46.0 ) translate(26.9903027277341 16.05 )"><tspan>Caracas</tspan></text></g></g></g></g></g><path fill="#000" fill-opacity="0" stroke="#474747" stroke-opacity="1" stroke-width="0" d="M0.0 0.0 L0.0 500.0 L600.0 500.0 L600.0 0.0 Z"/></g></svg>