<svg xmlns="http://www.w3.org/2000/svg" xmlns:xlink="http://www.w3.org/1999/xlink" width="600" height="400" stroke="gray" stroke-width="1" class="plt-container"><style type="text/css">.plt-container{font-family:Lucida Grande,sans-serif;user-select:none;-webkit-user-select:none;-moz-user-select:none;-ms-user-select:none}text{text-rendering:optimizeLegibility}#p4g00Es .legend-item,#p4g00Es .legend-title,#p4g00Es .plot-title{fill:#474747;font-family:Lucida Grande,sans-serif;font-weight:400;font-style:normal}#p4g00Es .plot-title{font-size:16px}#p4g00Es .legend-title{font-size:15px}#p4g00Es .legend-item{font-size:13px}#p4g00Es .axis-text-x,#p4g00Es .axis-text-y{fill:#474747;font-family:Lucida Grande,sans-serif;font-weight:400;font-style:normal}#p4g00Es .axis-title-x{font-size:15px}#p4g00Es .axis-title-x,#p4g00Es .axis-title-y{fill:#474747;font-family:Lucida Grande,sans-serif;font-weight:400;font-style:normal}#p4g00Es .axis-text-x{font-size:13px}#p4g00Es .axis-title-y{font-size:15px}#p4g00Es .axis-text-y{font-size:13px}</style><g id="p4g00Es"><path fill="#FFF" fill-opacity="1" fill-rule="evenodd" d="M0.0 0.0 L0.0 400.0 L600.0 400.0 L600.0 0.0 Z"/><g><g transform="translate(33.0 44.0 ) translate(21.961210910936405 0.0 )"><line x1="22.366" x2="22.366" y1="241.737" y2="0" fill="none" stroke="#E9E9E9" stroke-opacity="1" stroke-width="1"/><line x1="56.774" x2="56.774" y1="241.737" y2="0" fill="none" stroke="#E9E9E9" stroke-opacity="1" stroke-width="1"/><line x1="91.182" x2="91.182" y1="241.737" y2="0" fill="none" stroke="#E9E9E9" stroke-opacity="1" stroke-width="1"/><line x1="125.591" x2="125.591" y1="241.737" y2="0" fill="none" stroke="#E9E9E9" stroke-opacity="1" stroke-width="1"/><line x1="159.999" x2="159.999" y1="241.737" y2="0" fill="none" stroke="#E9E9E9" stroke-opacity="1" stroke-width="1"/><line x1="194.408" x2="194.408" y1="241.737" y2="0" fill="none" stroke="#E9E9E9" stroke-opacity="1" stroke-width="1"/><line x1="228.816" x2="228.816" y1="241.737" y2="0" fill="none" stroke="#E9E9E9" stroke-opacity="1" stroke-width="1"/><line x1="263.225" x2="263.225" y1="241.737" y2="0" fill="none" stroke="#E9E9E9" stroke-opacity="1" stroke-width="1"/><line x1="297.633" x2="297.633" y1="241.737" y2="0" fill="none" stroke="#E9E9E9" stroke-opacity="1" stroke-width="1"/><line x1="332.042" x2="332.042" y1="241.737" y2="0" fill="none" stroke="#E9E9E9" stroke-opacity="1" stroke-width="1"/><line x1="366.45" x2="366.45" y1="241.737" y2="0" fill="none" stroke="#E9E9E9" stroke-opacity="1" stroke-width="1"/><line x1="400.859" x2="400.859" y1="241.737" y2="0" fill="none" stroke="#E9E9E9" stroke-opacity="1" stroke-width="1"/></g><g transform="translate(33.0 44.0 ) translate(21.961210910936405 241.7369507836922 )"><g transform="translate(22.3655174394751 0.0 )"><line x2="0" y2="4" stroke="#474747" stroke-opacity="1" stroke-width="1"/><g><text class="axis-text-x" dy=".35em" transform="translate(0.0 7.0 ) rotate(90.0 )"><tspan>January</tspan></text></g></g><g transform="translate(56.77400580789833 0.0 )"><line x2="0" y2="4" stroke="#474747" stroke-opacity="1" stroke-width="1"/><g><text class="axis-text-x" dy=".35em" transform="translate(0.0 7.0 ) rotate(90.0 )"><tspan>February</tspan></text></g></g><g transform="translate(91.18249417632155 0.0 )"><line x2="0" y2="4" stroke="#474747" stroke-opacity="1" stroke-width="1"/><g><text class="axis-text-x" dy=".35em" transform="translate(0.0 7.0 ) rotate(90.0 )"><tspan>March</tspan></text></g></g><g transform="translate(125.59098254474478 0.0 )"><line x2="0" y2="4" stroke="#474747" stroke-opacity="1" stroke-width="1"/><g><text class="axis-text-x" dy=".35em" transform="translate(0.0 7.0 ) rotate(90.0 )"><tspan>April</tspan></text></g></g><g transform="translate(159.999470913168 0.0 )"><line x2="0" y2="4" stroke="#474747" stroke-opacity="1" stroke-width="1"/><g><text class="axis-text-x" dy=".35em" transform="translate(0.0 7.0 ) rotate(90.0 )"><tspan>May</tspan></text></g></g><g transform="translate(194.40795928159125 0.0 )"><line x2="0" y2="4" stroke="#474747" stroke-opacity="1" stroke-width="1"/><g><text class="axis-text-x" dy=".35em" transform="translate(0.0 7.0 ) rotate(90.0 )"><tspan>June</tspan></text></g></g><g transform="translate(228.81644765001445 0.0 )"><line x2="0" y2="4" stroke="#474747" stroke-opacity="1" stroke-width="1"/><g><text class="axis-text-x" dy=".35em" transform="translate(0.0 7.0 ) rotate(90.0 )"><tspan>July</tspan></text></g></g><g transform="translate(263.2249360184377 0.0 )"><line x2="0" y2="4" stroke="#474747" stroke-opacity="1" stroke-width="1"/><g><text class="axis-text-x" dy=".35em" transform="translate(0.0 7.0 ) rotate(90.0 )"><tspan>August</tspan></text></g></g><g transform="translate(297.63342438686095 0.0 )"><line x2="0" y2="4" stroke="#474747" stroke-opacity="1" stroke-width="1"/><g><text class="axis-text-x" dy=".35em" transform="translate(0.0 7.0 ) rotate(90.0 )"><tspan>September</tspan></text></g></g><g transform="translate(332.0419127552841 0.0 )"><line x2="0" y2="4" stroke="#474747" stroke-opacity="1" stroke-width="1"/><g><text class="axis-text-x" dy=".35em" transform="translate(0.0 7.0 ) rotate(90.0 )"><tspan>October</tspan></text></g></g><g transform="translate(366.45040112370737 0.0 )"><line x2="0" y2="4" stroke="#474747" stroke-opacity="1" stroke-width="1"/><g><text class="axis-text-x" dy=".35em" transform="translate(0.0 7.0 ) rotate(90.0 )"><tspan>November</tspan></text></g></g><g transform="translate(400.85888949213063 0.0 )"><line x2="0" y2="4" stroke="#474747" stroke-opacity="1" stroke-width="1"/><g><text class="axis-text-x" dy=".35em" transform="translate(0.0 7.0 ) rotate(90.0 )"><tspan>December</tspan></text></g></g><line x1="0" x2="423.224" y1="0" y2="0" stroke="#474747" stroke-opacity="1" stroke-width="1"/></g><g transform="translate(33.0 44.0 ) translate(21.961210910936405 0.0 )"><line x1="0" x2="423.224" y1="227.662" y2="227.662" fill="none" stroke="#E9E9E9" stroke-opacity="1" stroke-width="1"/><line x1="0" x2="423.224" y1="165.932" y2="165.932" fill="none" stroke="#E9E9E9" stroke-opacity="1" stroke-width="1"/><line x1="0" x2="423.224" y1="104.201" y2="104.201" fill="none" stroke="#E9E9E9" stroke-opacity="1" stroke-width="1"/><line x1="0" x2="423.224" y1="42.471" y2="42.471" fill="none" stroke="#E9E9E9" stroke-opacity="1" stroke-width="1"/></g><g><g><g><text class="axis-text-y" dy=".35em" text-anchor="end" transform="translate(33.0 44.0 ) translate(21.961210910936405 0.0 ) translate(0.0 227.66237857258858 ) translate(-3.0 0.0 )"><tspan>0</tspan></text></g></g><g><g><text class="axis-text-y" dy=".35em" text-anchor="end" transform="translate(33.0 44.0 ) translate(21.961210910936405 0.0 ) translate(0.0 165.93179869932703 ) translate(-3.0 0.0 )"><tspan>10</tspan></text></g></g><g><g><text class="axis-text-y" dy=".35em" text-anchor="end" transform="translate(33.0 44.0 ) translate(21.961210910936405 0.0 ) translate(0.0 104.2012188260655 ) translate(-3.0 0.0 )"><tspan>20</tspan></text></g></g><g><g><text class="axis-text-y" dy=".35em" text-anchor="end" transform="translate(33.0 44.0 ) translate(21.961210910936405 0.0 ) translate(0.0 42.47063895280397 ) translate(-3.0 0.0 )"><tspan>30</tspan></text></g></g></g><g clip-bounds-jfx="[rect (0.0, 0.0), (423.2244069316057, 241.7369507836922)]" clip-path="url(#chc06c4)" transform="translate(33.0 44.0 ) translate(21.961210910936405 0.0 )"><defs><clipPath id="chc06c4"><rect width="423.224" height="241.737" x="0" y="0"/></clipPath></defs><rect width="10.323" height="170.376" x="406.02" y="57.286" fill="#B5651D" fill-opacity="1" stroke="#FFF" stroke-opacity="1" stroke-width="1.65"/><rect width="10.323" height="178.401" x="371.612" y="49.261" fill="#B5651D" fill-opacity="1" stroke="#FFF" stroke-opacity="1" stroke-width="1.65"/><rect width="10.323" height="181.488" x="337.203" y="46.174" fill="#B5651D" fill-opacity="1" stroke="#FFF" stroke-opacity="1" stroke-width="1.65"/><rect width="10.323" height="193.217" x="302.795" y="34.446" fill="#B5651D" fill-opacity="1" stroke="#FFF" stroke-opacity="1" stroke-width="1.65"/><rect width="10.323" height="198.772" x="268.386" y="28.89" fill="#B5651D" fill-opacity="1" stroke="#FFF" stroke-opacity="1" stroke-width="1.65"/><rect width="10.323" height="208.649" x="233.978" y="19.013" fill="#B5651D" fill-opacity="1" stroke="#FFF" stroke-opacity="1" stroke-width="1.65"/><rect width="10.323" height="216.674" x="199.569" y="10.988" fill="#B5651D" fill-opacity="1" stroke="#FFF" stroke-opacity="1" stroke-width="1.65"/><rect width="10.323" height="195.686" x="165.161" y="31.976" fill="#B5651D" fill-opacity="1" stroke="#FFF" stroke-opacity="1" stroke-width="1.65"/><rect width="10.323" height="190.747" x="130.752" y="36.915" fill="#B5651D" fill-opacity="1" stroke="#FFF" stroke-opacity="1" stroke-width="1.65"/><rect width="10.323" height="182.723" x="96.344" y="44.94" fill="#B5651D" fill-opacity="1" stroke="#FFF" stroke-opacity="1" stroke-width="1.65"/><rect width="10.323" height="178.401" x="61.935" y="49.261" fill="#B5651D" fill-opacity="1" stroke="#FFF" stroke-opacity="1" stroke-width="1.65"/><rect width="10.323" height="169.759" x="27.527" y="57.903" fill="#B5651D" fill-opacity="1" stroke="#FFF" stroke-opacity="1" stroke-width="1.65"/><rect width="10.323" height="40.742" x="395.698" y="186.92" fill="#C2D4AB" fill-opacity="1" stroke="#FFF" stroke-opacity="1" stroke-width="1.65"/><rect width="10.323" height="61.113" x="361.289" y="166.549" fill="#C2D4AB" fill-opacity="1" stroke="#FFF" stroke-opacity="1" stroke-width="1.65"/><rect width="10.323" height="95.065" x="326.881" y="132.597" fill="#C2D4AB" fill-opacity="1" stroke="#FFF" stroke-opacity="1" stroke-width="1.65"/><rect width="10.323" height="125.313" x="292.472" y="102.349" fill="#C2D4AB" fill-opacity="1" stroke="#FFF" stroke-opacity="1" stroke-width="1.65"/><rect width="10.323" height="149.388" x="258.064" y="78.274" fill="#C2D4AB" fill-opacity="1" stroke="#FFF" stroke-opacity="1" stroke-width="1.65"/><rect width="10.323" height="152.475" x="223.655" y="75.188" fill="#C2D4AB" fill-opacity="1" stroke="#FFF" stroke-opacity="1" stroke-width="1.65"/><rect width="10.323" height="130.252" x="189.247" y="97.411" fill="#C2D4AB" fill-opacity="1" stroke="#FFF" stroke-opacity="1" stroke-width="1.65"/><rect width="10.323" height="103.09" x="154.838" y="124.572" fill="#C2D4AB" fill-opacity="1" stroke="#FFF" stroke-opacity="1" stroke-width="1.65"/><rect width="10.323" height="79.632" x="120.43" y="148.03" fill="#C2D4AB" fill-opacity="1" stroke="#FFF" stroke-opacity="1" stroke-width="1.65"/><rect width="10.323" height="69.138" x="86.021" y="158.524" fill="#C2D4AB" fill-opacity="1" stroke="#FFF" stroke-opacity="1" stroke-width="1.65"/><rect width="10.323" height="48.767" x="51.613" y="178.895" fill="#C2D4AB" fill-opacity="1" stroke="#FFF" stroke-opacity="1" stroke-width="1.65"/><rect width="10.323" height="38.89" x="17.204" y="188.772" fill="#C2D4AB" fill-opacity="1" stroke="#FFF" stroke-opacity="1" stroke-width="1.65"/><rect width="10.323" height="6.173" x="385.375" y="221.489" fill="#6F4E37" fill-opacity="1" stroke="#FFF" stroke-opacity="1" stroke-width="1.65"/><rect width="10.323" height="29.013" x="350.967" y="198.649" fill="#6F4E37" fill-opacity="1" stroke="#FFF" stroke-opacity="1" stroke-width="1.65"/><rect width="10.323" height="59.879" x="316.558" y="167.784" fill="#6F4E37" fill-opacity="1" stroke="#FFF" stroke-opacity="1" stroke-width="1.65"/><rect width="10.323" height="89.509" x="282.15" y="138.153" fill="#6F4E37" fill-opacity="1" stroke="#FFF" stroke-opacity="1" stroke-width="1.65"/><rect width="10.323" height="116.671" x="247.741" y="110.992" fill="#6F4E37" fill-opacity="1" stroke="#FFF" stroke-opacity="1" stroke-width="1.65"/><rect width="10.323" height="118.523" x="213.333" y="109.14" fill="#6F4E37" fill-opacity="1" stroke="#FFF" stroke-opacity="1" stroke-width="1.65"/><rect width="10.323" height="108.029" x="178.924" y="119.634" fill="#6F4E37" fill-opacity="1" stroke="#FFF" stroke-opacity="1" stroke-width="1.65"/><rect width="10.323" height="88.275" x="144.516" y="139.388" fill="#6F4E37" fill-opacity="1" stroke="#FFF" stroke-opacity="1" stroke-width="1.65"/><rect width="10.323" height="55.558" x="110.107" y="172.105" fill="#6F4E37" fill-opacity="1" stroke="#FFF" stroke-opacity="1" stroke-width="1.65"/><rect width="10.323" height="29.631" x="75.699" y="198.032" fill="#6F4E37" fill-opacity="1" stroke="#FFF" stroke-opacity="1" stroke-width="1.65"/><rect width="10.323" height=".1" x="41.29" y="227.662" fill="#6F4E37" fill-opacity="1" stroke="#FFF" stroke-opacity="1" stroke-width="1.65"/><rect width="10.323" height="3.087" x="6.882" y="227.662" fill="#6F4E37" fill-opacity="1" stroke="#FFF" stroke-opacity="1" stroke-width="1.65"/></g></g><g><text y="0" class="plot-title" transform="translate(54.9612109109364 25.2 )"><tspan>Temperature per month</tspan></text></g><g><text y="0" class="axis-title-y" text-anchor="middle" transform="translate(24.5 164.86847539184612 ) rotate(-90.0 )"><tspan>Temperature</tspan></text></g><g><text y="0" class="axis-title-x" text-anchor="middle" transform="translate(266.57341437673927 381.5 )"><tspan>Month</tspan></text></g><g transform="translate(488.1856178425421 109.11847539184612 )"><rect width="91.814" height="101.5" x="5" y="5" fill="#FFF" fill-opacity="1" stroke="#474747" stroke-opacity="1" stroke-width="0"/><g><g><text y="0" class="legend-title" transform="translate(10.0 10.0 ) translate(0.0 10.5 )"><tspan>City</tspan></text></g><g><g><g transform="translate(10.0 10.0 ) translate(0.0 22.5 )"><rect width="23" height="23" x="0" y="0" fill="#FFF" fill-opacity="1" stroke-width="0"/><g><g transform="translate(1.0 1.0 )"><rect width="21" height="21" x="0" y="0" fill="#6F4E37" fill-opacity="1" stroke="#FFF" stroke-opacity="1" stroke-width="1.5"/></g></g><rect width="23" height="23" x="0" y="0" fill-opacity="0" stroke="#FFF" stroke-opacity="1" stroke-width="1"/></g><g><text y="0" class="legend-item" transform="translate(10.0 10.0 ) translate(0.0 22.5 ) translate(26.9903027277341 16.05 )"><tspan>Berlin</tspan></text></g></g><g><g transform="translate(10.0 10.0 ) translate(0.0 22.5 ) translate(0.0 23.0 )"><rect width="23" height="23" x="0" y="0" fill="#FFF" fill-opacity="1" stroke-width="0"/><g><g transform="translate(1.0 1.0 )"><rect width="21" height="21" x="0" y="0" fill="#C2D4AB" fill-opacity="1" stroke="#FFF" stroke-opacity="1" stroke-width="1.5"/></g></g><rect width="23" height="23" x="0" y="0" fill-opacity="0" stroke="#FFF" stroke-opacity="1" stroke-width="1"/></g><g><text y="0" class="legend-item" transform="translate(10.0 10.0 ) translate(0.0 22.5 ) translate(0.0 23.0 ) translate(26.9903027277341 16.05 )"><tspan>Madrid</tspan></text></g></g><g><g transform="translate(10.0 10.0 ) translate(0.0 22.5 ) translate(0.0 46.0 )"><rect width="23" height="23" x="0" y="0" fill="#FFF" fill-opacity="1" stroke-width="0"/><g><g transform="translate(1.0 1.0 )"><rect width="21" height="21" x="0" y="0" fill="#B5651D" fill-opacity="1" stroke="#FFF" stroke-opacity="1" stroke-width="1.5"/></g></g><rect width="23" height="23" x="0" y="0" fill-opacity="0" stroke="#FFF" stroke-opacity="1" stroke-width="1"/></g><g><text y="0" class="legend-item" transform="translate(10.0 10.0 ) translate(0.0 22.5 ) translate(0.0 46.0 ) translate(26.9903027277341 16.05 )"><tspan>Caracas</tspan></text></g></g></g></g></g><path fill="#000" fill-opacity="0" stroke="#474747" stroke-opacity="1" stroke-width="0" d="M0.0 0.0 L0.0 400.0 L600.0 400.0 L600.0 0.0 Z"/></g></svg>