<svg xmlns="http://www.w3.org/2000/svg" xmlns:xlink="http://www.w3.org/1999/xlink" width="600" height="400" stroke="gray" stroke-width="1" class="plt-container"><style type="text/css">.plt-container{font-family:Lucida Grande,sans-serif;user-select:none;-webkit-user-select:none;-moz-user-select:none;-ms-user-select:none}text{text-rendering:optimizeLegibility}#piamzAu .legend-item,#piamzAu .legend-title,#piamzAu .plot-title{fill:#474747;font-family:Lucida Grande,sans-serif;font-weight:400;font-style:normal}#piamzAu .plot-title{font-size:16px}#piamzAu .legend-title{font-size:15px}#piamzAu .legend-item{font-size:13px}#piamzAu .axis-text-x,#piamzAu .axis-text-y{fill:#474747;font-family:Lucida Grande,sans-serif;font-weight:400;font-style:normal}#piamzAu .axis-title-x{font-size:15px}#piamzAu .axis-title-x,#piamzAu .axis-title-y{fill:#474747;font-family:Lucida Grande,sans-serif;font-weight:400;font-style:normal}#piamzAu .axis-text-x{font-size:13px}#piamzAu .axis-title-y{font-size:15px}#piamzAu .axis-text-y{font-size:13px}</style><g id="piamzAu"><path fill="#FFF" fill-opacity="1" fill-rule="evenodd" d="M0.0 0.0 L0.0 400.0 L600.0 400.0 L600.0 0.0 Z"/><g><g transform="translate(33.0 44.0 ) translate(21.961210910936405 0.0 )"><line x1="7.425" x2="7.425" y1="241.737" y2="0" fill="none" stroke="#E9E9E9" stroke-opacity="1" stroke-width="1"/><line x1="44.55" x2="44.55" y1="241.737" y2="0" fill="none" stroke="#E9E9E9" stroke-opacity="1" stroke-width="1"/><line x1="81.675" x2="81.675" y1="241.737" y2="0" fill="none" stroke="#E9E9E9" stroke-opacity="1" stroke-width="1"/><line x1="118.8" x2="118.8" y1="241.737" y2="0" fill="none" stroke="#E9E9E9" stroke-opacity="1" stroke-width="1"/><line x1="155.925" x2="155.925" y1="241.737" y2="0" fill="none" stroke="#E9E9E9" stroke-opacity="1" stroke-width="1"/><line x1="193.05" x2="193.05" y1="241.737" y2="0" fill="none" stroke="#E9E9E9" stroke-opacity="1" stroke-width="1"/><line x1="230.175" x2="230.175" y1="241.737" y2="0" fill="none" stroke="#E9E9E9" stroke-opacity="1" stroke-width="1"/><line x1="267.3" x2="267.3" y1="241.737" y2="0" fill="none" stroke="#E9E9E9" stroke-opacity="1" stroke-width="1"/><line x1="304.425" x2="304.425" y1="241.737" y2="0" fill="none" stroke="#E9E9E9" stroke-opacity="1" stroke-width="1"/><line x1="341.55" x2="341.55" y1="241.737" y2="0" fill="none" stroke="#E9E9E9" stroke-opacity="1" stroke-width="1"/><line x1="378.674" x2="378.674" y1="241.737" y2="0" fill="none" stroke="#E9E9E9" stroke-opacity="1" stroke-width="1"/><line x1="415.799" x2="415.799" y1="241.737" y2="0" fill="none" stroke="#E9E9E9" stroke-opacity="1" stroke-width="1"/></g><g transform="translate(33.0 44.0 ) translate(21.961210910936405 241.7369507836922 )"><g transform="translate(7.424989595291329 0.0 )"><line x2="0" y2="4" stroke="#474747" stroke-opacity="1" stroke-width="1"/><g><text class="axis-text-x" dy=".35em" transform="translate(0.0 7.0 ) rotate(90.0 )"><tspan>January</tspan></text></g></g><g transform="translate(44.549937571747975 0.0 )"><line x2="0" y2="4" stroke="#474747" stroke-opacity="1" stroke-width="1"/><g><text class="axis-text-x" dy=".35em" transform="translate(0.0 7.0 ) rotate(90.0 )"><tspan>February</tspan></text></g></g><g transform="translate(81.67488554820463 0.0 )"><line x2="0" y2="4" stroke="#474747" stroke-opacity="1" stroke-width="1"/><g><text class="axis-text-x" dy=".35em" transform="translate(0.0 7.0 ) rotate(90.0 )"><tspan>March</tspan></text></g></g><g transform="translate(118.79983352466127 0.0 )"><line x2="0" y2="4" stroke="#474747" stroke-opacity="1" stroke-width="1"/><g><text class="axis-text-x" dy=".35em" transform="translate(0.0 7.0 ) rotate(90.0 )"><tspan>April</tspan></text></g></g><g transform="translate(155.9247815011179 0.0 )"><line x2="0" y2="4" stroke="#474747" stroke-opacity="1" stroke-width="1"/><g><text class="axis-text-x" dy=".35em" transform="translate(0.0 7.0 ) rotate(90.0 )"><tspan>May</tspan></text></g></g><g transform="translate(193.04972947757454 0.0 )"><line x2="0" y2="4" stroke="#474747" stroke-opacity="1" stroke-width="1"/><g><text class="axis-text-x" dy=".35em" transform="translate(0.0 7.0 ) rotate(90.0 )"><tspan>June</tspan></text></g></g><g transform="translate(230.1746774540312 0.0 )"><line x2="0" y2="4" stroke="#474747" stroke-opacity="1" stroke-width="1"/><g><text class="axis-text-x" dy=".35em" transform="translate(0.0 7.0 ) rotate(90.0 )"><tspan>July</tspan></text></g></g><g transform="translate(267.2996254304878 0.0 )"><line x2="0" y2="4" stroke="#474747" stroke-opacity="1" stroke-width="1"/><g><text class="axis-text-x" dy=".35em" transform="translate(0.0 7.0 ) rotate(90.0 )"><tspan>August</tspan></text></g></g><g transform="translate(304.4245734069445 0.0 )"><line x2="0" y2="4" stroke="#474747" stroke-opacity="1" stroke-width="1"/><g><text class="axis-text-x" dy=".35em" transform="translate(0.0 7.0 ) rotate(90.0 )"><tspan>September</tspan></text></g></g><g transform="translate(341.54952138340116 0.0 )"><line x2="0" y2="4" stroke="#474747" stroke-opacity="1" stroke-width="1"/><g><text class="axis-text-x" dy=".35em" transform="translate(0.0 7.0 ) rotate(90.0 )"><tspan>October</tspan></text></g></g><g transform="translate(378.67446935985777 0.0 )"><line x2="0" y2="4" stroke="#474747" stroke-opacity="1" stroke-width="1"/><g><text class="axis-text-x" dy=".35em" transform="translate(0.0 7.0 ) rotate(90.0 )"><tspan>November</tspan></text></g></g><g transform="translate(415.79941733631443 0.0 )"><line x2="0" y2="4" stroke="#474747" stroke-opacity="1" stroke-width="1"/><g><text class="axis-text-x" dy=".35em" transform="translate(0.0 7.0 ) rotate(90.0 )"><tspan>December</tspan></text></g></g><line x1="0" x2="423.224" y1="0" y2="0" stroke="#474747" stroke-opacity="1" stroke-width="1"/></g><g transform="translate(33.0 44.0 ) translate(21.961210910936405 0.0 )"><line x1="0" x2="423.224" y1="227.662" y2="227.662" fill="none" stroke="#E9E9E9" stroke-opacity="1" stroke-width="1"/><line x1="0" x2="423.224" y1="165.932" y2="165.932" fill="none" stroke="#E9E9E9" stroke-opacity="1" stroke-width="1"/><line x1="0" x2="423.224" y1="104.201" y2="104.201" fill="none" stroke="#E9E9E9" stroke-opacity="1" stroke-width="1"/><line x1="0" x2="423.224" y1="42.471" y2="42.471" fill="none" stroke="#E9E9E9" stroke-opacity="1" stroke-width="1"/></g><g><g><g><text class="axis-text-y" dy=".35em" text-anchor="end" transform="translate(33.0 44.0 ) translate(21.961210910936405 0.0 ) translate(0.0 227.66237857258858 ) translate(-3.0 0.0 )"><tspan>0</tspan></text></g></g><g><g><text class="axis-text-y" dy=".35em" text-anchor="end" transform="translate(33.0 44.0 ) translate(21.961210910936405 0.0 ) translate(0.0 165.93179869932703 ) translate(-3.0 0.0 )"><tspan>10</tspan></text></g></g><g><g><text class="axis-text-y" dy=".35em" text-anchor="end" transform="translate(33.0 44.0 ) translate(21.961210910936405 0.0 ) translate(0.0 104.2012188260655 ) translate(-3.0 0.0 )"><tspan>20</tspan></text></g></g><g><g><text class="axis-text-y" dy=".35em" text-anchor="end" transform="translate(33.0 44.0 ) translate(21.961210910936405 0.0 ) translate(0.0 42.47063895280397 ) translate(-3.0 0.0 )"><tspan>30</tspan></text></g></g></g><g clip-bounds-jfx="[rect (0.0, 0.0), (423.2244069316057, 241.7369507836922)]" clip-path="url(#cwEn71K)" transform="translate(33.0 44.0 ) translate(21.961210910936405 0.0 )"><defs><clipPath id="cwEn71K"><rect width="423.224" height="241.737" x="0" y="0"/></clipPath></defs><g><g><circle cx="7.425" cy="230.749" r="6.05" fill="#91cc75" stroke="#91cc75" stroke-opacity="0" stroke-width="0"/><circle cx="44.55" cy="227.662" r="6.05" fill="#91cc75" stroke="#91cc75" stroke-opacity="0" stroke-width="0"/><circle cx="81.675" cy="198.032" r="6.05" fill="#91cc75" stroke="#91cc75" stroke-opacity="0" stroke-width="0"/><circle cx="118.8" cy="172.105" r="6.05" fill="#91cc75" stroke="#91cc75" stroke-opacity="0" stroke-width="0"/><circle cx="155.925" cy="139.388" r="6.05" fill="#91cc75" stroke="#91cc75" stroke-opacity="0" stroke-width="0"/><circle cx="193.05" cy="119.634" r="6.05" fill="#91cc75" stroke="#91cc75" stroke-opacity="0" stroke-width="0"/><circle cx="230.175" cy="109.14" r="6.05" fill="#91cc75" stroke="#91cc75" stroke-opacity="0" stroke-width="0"/><circle cx="267.3" cy="110.992" r="6.05" fill="#91cc75" stroke="#91cc75" stroke-opacity="0" stroke-width="0"/><circle cx="304.425" cy="138.153" r="6.05" fill="#91cc75" stroke="#91cc75" stroke-opacity="0" stroke-width="0"/><circle cx="341.55" cy="167.784" r="6.05" fill="#91cc75" stroke="#91cc75" stroke-opacity="0" stroke-width="0"/><circle cx="378.674" cy="198.649" r="6.05" fill="#91cc75" stroke="#91cc75" stroke-opacity="0" stroke-width="0"/><circle cx="415.799" cy="221.489" r="6.05" fill="#91cc75" stroke="#91cc75" stroke-opacity="0" stroke-width="0"/><circle cx="7.425" cy="188.772" r="6.05" fill="#000" stroke="#000" stroke-opacity="0" stroke-width="0"/><circle cx="44.55" cy="178.895" r="6.05" fill="#000" stroke="#000" stroke-opacity="0" stroke-width="0"/><circle cx="81.675" cy="158.524" r="6.05" fill="#000" stroke="#000" stroke-opacity="0" stroke-width="0"/><circle cx="118.8" cy="148.03" r="6.05" fill="#000" stroke="#000" stroke-opacity="0" stroke-width="0"/><circle cx="155.925" cy="124.572" r="6.05" fill="#000" stroke="#000" stroke-opacity="0" stroke-width="0"/><circle cx="193.05" cy="97.411" r="6.05" fill="#000" stroke="#000" stroke-opacity="0" stroke-width="0"/><circle cx="230.175" cy="75.188" r="6.05" fill="#000" stroke="#000" stroke-opacity="0" stroke-width="0"/><circle cx="267.3" cy="78.274" r="6.05" fill="#000" stroke="#000" stroke-opacity="0" stroke-width="0"/><circle cx="304.425" cy="102.349" r="6.05" fill="#000" stroke="#000" stroke-opacity="0" stroke-width="0"/><circle cx="341.55" cy="132.597" r="6.05" fill="#000" stroke="#000" stroke-opacity="0" stroke-width="0"/><circle cx="378.674" cy="166.549" r="6.05" fill="#000" stroke="#000" stroke-opacity="0" stroke-width="0"/><circle cx="415.799" cy="186.92" r="6.05" fill="#000" stroke="#000" stroke-opacity="0" stroke-width="0"/><circle cx="7.425" cy="57.903" r="6.05" fill="#fac858" stroke="#fac858" stroke-opacity="0" stroke-width="0"/><circle cx="44.55" cy="49.261" r="6.05" fill="#fac858" stroke="#fac858" stroke-opacity="0" stroke-width="0"/><circle cx="81.675" cy="44.94" r="6.05" fill="#fac858" stroke="#fac858" stroke-opacity="0" stroke-width="0"/><circle cx="118.8" cy="36.915" r="6.05" fill="#fac858" stroke="#fac858" stroke-opacity="0" stroke-width="0"/><circle cx="155.925" cy="31.976" r="6.05" fill="#fac858" stroke="#fac858" stroke-opacity="0" stroke-width="0"/><circle cx="193.05" cy="10.988" r="6.05" fill="#fac858" stroke="#fac858" stroke-opacity="0" stroke-width="0"/><circle cx="230.175" cy="19.013" r="6.05" fill="#fac858" stroke="#fac858" stroke-opacity="0" stroke-width="0"/><circle cx="267.3" cy="28.89" r="6.05" fill="#fac858" stroke="#fac858" stroke-opacity="0" stroke-width="0"/><circle cx="304.425" cy="34.446" r="6.05" fill="#fac858" stroke="#fac858" stroke-opacity="0" stroke-width="0"/><circle cx="341.55" cy="46.174" r="6.05" fill="#fac858" stroke="#fac858" stroke-opacity="0" stroke-width="0"/><circle cx="378.674" cy="49.261" r="6.05" fill="#fac858" stroke="#fac858" stroke-opacity="0" stroke-width="0"/><circle cx="415.799" cy="57.286" r="6.05" fill="#fac858" stroke="#fac858" stroke-opacity="0" stroke-width="0"/></g></g></g></g><g><text y="0" class="plot-title" transform="translate(54.9612109109364 25.2 )"><tspan>Temperature per month</tspan></text></g><g><text y="0" class="axis-title-y" text-anchor="middle" transform="translate(24.5 164.86847539184612 ) rotate(-90.0 )"><tspan>Temperature</tspan></text></g><g><text y="0" class="axis-title-x" text-anchor="middle" transform="translate(266.57341437673927 381.5 )"><tspan>Month</tspan></text></g><g transform="translate(488.1856178425421 109.11847539184612 )"><rect width="91.814" height="101.5" x="5" y="5" fill="#FFF" fill-opacity="1" stroke="#474747" stroke-opacity="1" stroke-width="0"/><g><g><text y="0" class="legend-title" transform="translate(10.0 10.0 ) translate(0.0 10.5 )"><tspan>City</tspan></text></g><g><g><g transform="translate(10.0 10.0 ) translate(0.0 22.5 )"><rect width="23" height="23" x="0" y="0" fill="#FFF" fill-opacity="1" stroke-width="0"/><g><g><g transform="translate(1.0 1.0 )"><circle cx="10.5" cy="10.5" r="5.5" fill="#91cc75" stroke="#91cc75" stroke-opacity="0" stroke-width="0"/></g></g></g><rect width="23" height="23" x="0" y="0" fill-opacity="0" stroke="#FFF" stroke-opacity="1" stroke-width="1"/></g><g><text y="0" class="legend-item" transform="translate(10.0 10.0 ) translate(0.0 22.5 ) translate(26.9903027277341 16.05 )"><tspan>Berlin</tspan></text></g></g><g><g transform="translate(10.0 10.0 ) translate(0.0 22.5 ) translate(0.0 23.0 )"><rect width="23" height="23" x="0" y="0" fill="#FFF" fill-opacity="1" stroke-width="0"/><g><g><g transform="translate(1.0 1.0 )"><circle cx="10.5" cy="10.5" r="5.5" fill="#000" stroke="#000" stroke-opacity="0" stroke-width="0"/></g></g></g><rect width="23" height="23" x="0" y="0" fill-opacity="0" stroke="#FFF" stroke-opacity="1" stroke-width="1"/></g><g><text y="0" class="legend-item" transform="translate(10.0 10.0 ) translate(0.0 22.5 ) translate(0.0 23.0 ) translate(26.9903027277341 16.05 )"><tspan>Madrid</tspan></text></g></g><g><g transform="translate(10.0 10.0 ) translate(0.0 22.5 ) translate(0.0 46.0 )"><rect width="23" height="23" x="0" y="0" fill="#FFF" fill-opacity="1" stroke-width="0"/><g><g><g transform="translate(1.0 1.0 )"><circle cx="10.5" cy="10.5" r="5.5" fill="#fac858" stroke="#fac858" stroke-opacity="0" stroke-width="0"/></g></g></g><rect width="23" height="23" x="0" y="0" fill-opacity="0" stroke="#FFF" stroke-opacity="1" stroke-width="1"/></g><g><text y="0" class="legend-item" transform="translate(10.0 10.0 ) translate(0.0 22.5 ) translate(0.0 46.0 ) translate(26.9903027277341 16.05 )"><tspan>Caracas</tspan></text></g></g></g></g></g><path fill="#000" fill-opacity="0" stroke="#474747" stroke-opacity="1" stroke-width="0" d="M0.0 0.0 L0.0 400.0 L600.0 400.0 L600.0 0.0 Z"/></g></svg>