<svg xmlns="http://www.w3.org/2000/svg" xmlns:xlink="http://www.w3.org/1999/xlink" width="1000" height="450" stroke="gray" stroke-width="1" class="plt-container"><style type="text/css">.plt-container{font-family:Lucida Grande,sans-serif;user-select:none;-webkit-user-select:none;-moz-user-select:none;-ms-user-select:none}text{text-rendering:optimizeLegibility}#pBw3HDa .legend-item,#pBw3HDa .legend-title{fill:#474747;font-family:Lucida Grande,sans-serif;font-weight:400;font-style:normal}#pBw3HDa .legend-title{font-size:15px}#pBw3HDa .legend-item{font-size:13px}#pBw3HDa .axis-text-x,#pBw3HDa .axis-text-y{fill:#474747;font-family:Lucida Grande,sans-serif;font-weight:400;font-style:normal}#pBw3HDa .axis-title-x{font-size:15px}#pBw3HDa .axis-title-x,#pBw3HDa .axis-title-y{fill:#474747;font-family:Lucida Grande,sans-serif;font-weight:400;font-style:normal}#pBw3HDa .axis-text-x{font-size:13px}#pBw3HDa .axis-title-y{font-size:15px}#pBw3HDa .axis-text-y{font-size:13px}</style><g id="pBw3HDa"><path fill="#FFF" fill-opacity="1" fill-rule="evenodd" d="M0.0 0.0 L0.0 450.0 L1000.0 450.0 L1000.0 0.0 Z"/><g><g transform="translate(33.0 20.0 ) translate(21.961210910936405 0.0 )"><line x1="14.443" x2="14.443" y1="315.737" y2="0" fill="none" stroke="#E9E9E9" stroke-opacity="1" stroke-width="1"/><line x1="86.655" x2="86.655" y1="315.737" y2="0" fill="none" stroke="#E9E9E9" stroke-opacity="1" stroke-width="1"/><line x1="158.868" x2="158.868" y1="315.737" y2="0" fill="none" stroke="#E9E9E9" stroke-opacity="1" stroke-width="1"/><line x1="231.081" x2="231.081" y1="315.737" y2="0" fill="none" stroke="#E9E9E9" stroke-opacity="1" stroke-width="1"/><line x1="303.293" x2="303.293" y1="315.737" y2="0" fill="none" stroke="#E9E9E9" stroke-opacity="1" stroke-width="1"/><line x1="375.506" x2="375.506" y1="315.737" y2="0" fill="none" stroke="#E9E9E9" stroke-opacity="1" stroke-width="1"/><line x1="447.719" x2="447.719" y1="315.737" y2="0" fill="none" stroke="#E9E9E9" stroke-opacity="1" stroke-width="1"/><line x1="519.931" x2="519.931" y1="315.737" y2="0" fill="none" stroke="#E9E9E9" stroke-opacity="1" stroke-width="1"/><line x1="592.144" x2="592.144" y1="315.737" y2="0" fill="none" stroke="#E9E9E9" stroke-opacity="1" stroke-width="1"/><line x1="664.357" x2="664.357" y1="315.737" y2="0" fill="none" stroke="#E9E9E9" stroke-opacity="1" stroke-width="1"/><line x1="736.569" x2="736.569" y1="315.737" y2="0" fill="none" stroke="#E9E9E9" stroke-opacity="1" stroke-width="1"/><line x1="808.782" x2="808.782" y1="315.737" y2="0" fill="none" stroke="#E9E9E9" stroke-opacity="1" stroke-width="1"/></g><g transform="translate(33.0 20.0 ) translate(21.961210910936405 315.73695078369224 )"><g transform="translate(14.442533454940454 0.0 )"><line x2="0" y2="4" stroke="#474747" stroke-opacity="1" stroke-width="1"/><g><text class="axis-text-x" dy=".35em" transform="translate(0.0 7.0 ) rotate(90.0 )"><tspan>January</tspan></text></g></g><g transform="translate(86.65520072964273 0.0 )"><line x2="0" y2="4" stroke="#474747" stroke-opacity="1" stroke-width="1"/><g><text class="axis-text-x" dy=".35em" transform="translate(0.0 7.0 ) rotate(90.0 )"><tspan>February</tspan></text></g></g><g transform="translate(158.86786800434498 0.0 )"><line x2="0" y2="4" stroke="#474747" stroke-opacity="1" stroke-width="1"/><g><text class="axis-text-x" dy=".35em" transform="translate(0.0 7.0 ) rotate(90.0 )"><tspan>March</tspan></text></g></g><g transform="translate(231.08053527904727 0.0 )"><line x2="0" y2="4" stroke="#474747" stroke-opacity="1" stroke-width="1"/><g><text class="axis-text-x" dy=".35em" transform="translate(0.0 7.0 ) rotate(90.0 )"><tspan>April</tspan></text></g></g><g transform="translate(303.29320255374955 0.0 )"><line x2="0" y2="4" stroke="#474747" stroke-opacity="1" stroke-width="1"/><g><text class="axis-text-x" dy=".35em" transform="translate(0.0 7.0 ) rotate(90.0 )"><tspan>May</tspan></text></g></g><g transform="translate(375.5058698284518 0.0 )"><line x2="0" y2="4" stroke="#474747" stroke-opacity="1" stroke-width="1"/><g><text class="axis-text-x" dy=".35em" transform="translate(0.0 7.0 ) rotate(90.0 )"><tspan>June</tspan></text></g></g><g transform="translate(447.7185371031541 0.0 )"><line x2="0" y2="4" stroke="#474747" stroke-opacity="1" stroke-width="1"/><g><text class="axis-text-x" dy=".35em" transform="translate(0.0 7.0 ) rotate(90.0 )"><tspan>July</tspan></text></g></g><g transform="translate(519.9312043778564 0.0 )"><line x2="0" y2="4" stroke="#474747" stroke-opacity="1" stroke-width="1"/><g><text class="axis-text-x" dy=".35em" transform="translate(0.0 7.0 ) rotate(90.0 )"><tspan>August</tspan></text></g></g><g transform="translate(592.1438716525586 0.0 )"><line x2="0" y2="4" stroke="#474747" stroke-opacity="1" stroke-width="1"/><g><text class="axis-text-x" dy=".35em" transform="translate(0.0 7.0 ) rotate(90.0 )"><tspan>September</tspan></text></g></g><g transform="translate(664.3565389272609 0.0 )"><line x2="0" y2="4" stroke="#474747" stroke-opacity="1" stroke-width="1"/><g><text class="axis-text-x" dy=".35em" transform="translate(0.0 7.0 ) rotate(90.0 )"><tspan>October</tspan></text></g></g><g transform="translate(736.5692062019631 0.0 )"><line x2="0" y2="4" stroke="#474747" stroke-opacity="1" stroke-width="1"/><g><text class="axis-text-x" dy=".35em" transform="translate(0.0 7.0 ) rotate(90.0 )"><tspan>November</tspan></text></g></g><g transform="translate(808.7818734766654 0.0 )"><line x2="0" y2="4" stroke="#474747" stroke-opacity="1" stroke-width="1"/><g><text class="axis-text-x" dy=".35em" transform="translate(0.0 7.0 ) rotate(90.0 )"><tspan>December</tspan></text></g></g><line x1="0" x2="823.224" y1="0" y2="0" stroke="#474747" stroke-opacity="1" stroke-width="1"/></g><g transform="translate(33.0 20.0 ) translate(21.961210910936405 0.0 )"><line x1="0" x2="823.224" y1="297.354" y2="297.354" fill="none" stroke="#E9E9E9" stroke-opacity="1" stroke-width="1"/><line x1="0" x2="823.224" y1="257.04" y2="257.04" fill="none" stroke="#E9E9E9" stroke-opacity="1" stroke-width="1"/><line x1="0" x2="823.224" y1="216.726" y2="216.726" fill="none" stroke="#E9E9E9" stroke-opacity="1" stroke-width="1"/><line x1="0" x2="823.224" y1="176.413" y2="176.413" fill="none" stroke="#E9E9E9" stroke-opacity="1" stroke-width="1"/><line x1="0" x2="823.224" y1="136.099" y2="136.099" fill="none" stroke="#E9E9E9" stroke-opacity="1" stroke-width="1"/><line x1="0" x2="823.224" y1="95.785" y2="95.785" fill="none" stroke="#E9E9E9" stroke-opacity="1" stroke-width="1"/><line x1="0" x2="823.224" y1="55.472" y2="55.472" fill="none" stroke="#E9E9E9" stroke-opacity="1" stroke-width="1"/><line x1="0" x2="823.224" y1="15.158" y2="15.158" fill="none" stroke="#E9E9E9" stroke-opacity="1" stroke-width="1"/></g><g><g><g><text class="axis-text-y" dy=".35em" text-anchor="end" transform="translate(33.0 20.0 ) translate(21.961210910936405 0.0 ) translate(0.0 297.35390053377347 ) translate(-3.0 0.0 )"><tspan>0</tspan></text></g></g><g><g><text class="axis-text-y" dy=".35em" text-anchor="end" transform="translate(33.0 20.0 ) translate(21.961210910936405 0.0 ) translate(0.0 257.04019384535513 ) translate(-3.0 0.0 )"><tspan>5</tspan></text></g></g><g><g><text class="axis-text-y" dy=".35em" text-anchor="end" transform="translate(33.0 20.0 ) translate(21.961210910936405 0.0 ) translate(0.0 216.72648715693686 ) translate(-3.0 0.0 )"><tspan>10</tspan></text></g></g><g><g><text class="axis-text-y" dy=".35em" text-anchor="end" transform="translate(33.0 20.0 ) translate(21.961210910936405 0.0 ) translate(0.0 176.41278046851855 ) translate(-3.0 0.0 )"><tspan>15</tspan></text></g></g><g><g><text class="axis-text-y" dy=".35em" text-anchor="end" transform="translate(33.0 20.0 ) translate(21.961210910936405 0.0 ) translate(0.0 136.09907378010024 ) translate(-3.0 0.0 )"><tspan>20</tspan></text></g></g><g><g><text class="axis-text-y" dy=".35em" text-anchor="end" transform="translate(33.0 20.0 ) translate(21.961210910936405 0.0 ) translate(0.0 95.78536709168193 ) translate(-3.0 0.0 )"><tspan>25</tspan></text></g></g><g><g><text class="axis-text-y" dy=".35em" text-anchor="end" transform="translate(33.0 20.0 ) translate(21.961210910936405 0.0 ) translate(0.0 55.47166040326363 ) translate(-3.0 0.0 )"><tspan>30</tspan></text></g></g><g><g><text class="axis-text-y" dy=".35em" text-anchor="end" transform="translate(33.0 20.0 ) translate(21.961210910936405 0.0 ) translate(0.0 15.157953714845291 ) translate(-3.0 0.0 )"><tspan>35</tspan></text></g></g></g><g clip-bounds-jfx="[rect (0.0, 0.0), (823.2244069316057, 315.73695078369224)]" clip-path="url(#c91hXhu)" transform="translate(33.0 20.0 ) translate(21.961210910936405 0.0 )"><defs><clipPath id="c91hXhu"><rect width="823.224" height="315.737" x="0" y="0"/></clipPath></defs><g><path fill="none" stroke="#9A60B4" stroke-opacity="1" stroke-width="3.3" d="M14.442533454940454 301.3852712026153 L14.442533454940454 301.3852712026153 L86.65520072964273 297.35390053377347 L158.86786800434498 258.6527421128919 L231.08053527904727 224.78922849462052 L303.29320255374955 182.0566994048971 L375.5058698284518 156.25592712430938 L447.7185371031541 142.54926685024716 L519.9312043778564 144.96808925155227 L592.1438716525586 180.4441511373604 L664.3565389272609 219.14530955824196 L736.5692062019631 259.45901624666027 L808.7818734766654 289.2911591960898"/></g><g><path fill="none" stroke="#FC8452" stroke-opacity="1" stroke-width="3.3" d="M14.442533454940454 246.5586301063664 L14.442533454940454 246.5586301063664 L86.65520072964273 233.65824396607255 L158.86786800434498 207.05119755171648 L231.08053527904727 193.34453727765424 L303.29320255374955 162.70612019445633 L375.5058698284518 127.23005830864821 L447.7185371031541 98.20418949298704 L519.9312043778564 102.23556016182886 L592.1438716525586 133.68025137879513 L664.3565389272609 173.1876839334451 L736.5692062019631 217.53276129070522 L808.7818734766654 244.13980770506132"/></g><g><path fill="none" stroke="#3BA272" stroke-opacity="1" stroke-width="3.3" d="M14.442533454940454 75.62851374747277 L14.442533454940454 75.62851374747277 L86.65520072964273 64.34067587471566 L158.86786800434498 58.696756938337074 L231.08053527904727 48.215193199348334 L303.29320255374955 41.76500012920141 L375.5058698284518 14.35167958107695 L447.7185371031541 24.83324332006572 L519.9312043778564 37.733629460359566 L592.1438716525586 44.99009666427486 L664.3565389272609 60.30930520587384 L736.5692062019631 64.34067587471566 L808.7818734766654 74.8222396137044"/></g></g></g><g><text y="0" class="axis-title-y" text-anchor="middle" transform="translate(24.5 177.86847539184612 ) rotate(-90.0 )"><tspan>Temperature</tspan></text></g><g><text y="0" class="axis-title-x" text-anchor="middle" transform="translate(466.57341437673927 431.5 )"><tspan>Month</tspan></text></g><g transform="translate(888.1856178425421 122.11847539184612 )"><rect width="91.814" height="101.5" x="5" y="5" fill="#FFF" fill-opacity="1" stroke="#474747" stroke-opacity="1" stroke-width="0"/><g><g><text y="0" class="legend-title" transform="translate(10.0 10.0 ) translate(0.0 10.5 )"><tspan>City</tspan></text></g><g><g><g transform="translate(10.0 10.0 ) translate(0.0 22.5 )"><rect width="23" height="23" x="0" y="0" fill="#FFF" fill-opacity="1" stroke-width="0"/><g><g transform="translate(1.0 1.0 )"><line x1="0" x2="21" y1="10.5" y2="10.5" fill="#FFF" fill-opacity="1" stroke="#9A60B4" stroke-opacity="1" stroke-width="1.65"/></g></g><rect width="23" height="23" x="0" y="0" fill-opacity="0" stroke="#FFF" stroke-opacity="1" stroke-width="1"/></g><g><text y="0" class="legend-item" transform="translate(10.0 10.0 ) translate(0.0 22.5 ) translate(26.9903027277341 16.05 )"><tspan>Berlin</tspan></text></g></g><g><g transform="translate(10.0 10.0 ) translate(0.0 22.5 ) translate(0.0 23.0 )"><rect width="23" height="23" x="0" y="0" fill="#FFF" fill-opacity="1" stroke-width="0"/><g><g transform="translate(1.0 1.0 )"><line x1="0" x2="21" y1="10.5" y2="10.5" fill="#FFF" fill-opacity="1" stroke="#FC8452" stroke-opacity="1" stroke-width="1.65"/></g></g><rect width="23" height="23" x="0" y="0" fill-opacity="0" stroke="#FFF" stroke-opacity="1" stroke-width="1"/></g><g><text y="0" class="legend-item" transform="translate(10.0 10.0 ) translate(0.0 22.5 ) translate(0.0 23.0 ) translate(26.9903027277341 16.05 )"><tspan>Madrid</tspan></text></g></g><g><g transform="translate(10.0 10.0 ) translate(0.0 22.5 ) translate(0.0 46.0 )"><rect width="23" height="23" x="0" y="0" fill="#FFF" fill-opacity="1" stroke-width="0"/><g><g transform="translate(1.0 1.0 )"><line x1="0" x2="21" y1="10.5" y2="10.5" fill="#FFF" fill-opacity="1" stroke="#3BA272" stroke-opacity="1" stroke-width="1.65"/></g></g><rect width="23" height="23" x="0" y="0" fill-opacity="0" stroke="#FFF" stroke-opacity="1" stroke-width="1"/></g><g><text y="0" class="legend-item" transform="translate(10.0 10.0 ) translate(0.0 22.5 ) translate(0.0 46.0 ) translate(26.9903027277341 16.05 )"><tspan>Caracas</tspan></text></g></g></g></g></g><path fill="#000" fill-opacity="0" stroke="#474747" stroke-opacity="1" stroke-width="0" d="M0.0 0.0 L0.0 450.0 L1000.0 450.0 L1000.0 0.0 Z"/></g></svg>