<svg xmlns="http://www.w3.org/2000/svg" id="Capa_1" data-name="Capa 1" viewBox="0 0 36 36"><defs><style>.cls-1{fill:#e01e5a}.cls-2{fill:#36c5f0}.cls-3{fill:#2eb67d}.cls-4{fill:#ecb22e}</style></defs><path d="M9.9,21.65a3,3,0,1,1-3-3h3Z" class="cls-1"/><path d="M11.42,21.65a3,3,0,0,1,6,0v7.56a3,3,0,1,1-6,0Z" class="cls-1"/><path d="M14.44,9.52a3,3,0,1,1,3-3v3Z" class="cls-2"/><path d="M14.44,11a3,3,0,1,1,0,6H6.88a3,3,0,0,1,0-6Z" class="cls-2"/><path d="M26.57,14.06a3,3,0,1,1,3,3h-3Z" class="cls-3"/><path d="M25.05,14.06a3,3,0,1,1-6,0V6.5a3,3,0,1,1,6,0Z" class="cls-3"/><path d="M22,26.19a3,3,0,1,1-3,3v-3Z" class="cls-4"/><path d="M22,24.67a3,3,0,1,1,0-6h7.56a3,3,0,0,1,0,6Z" class="cls-4"/></svg>